<?xml version="1.0" encoding="utf-8"?>
<!-- Generator: Adobe Illustrator 23.0.1, SVG Export Plug-In . SVG Version: 6.00 Build 0)  -->
<svg version="1.1" id="Слой_1" xmlns="http://www.w3.org/2000/svg" xmlns:xlink="http://www.w3.org/1999/xlink" x="0px" y="0px"
	 viewBox="0 0 460.89 181.99" style="enable-background:new 0 0 460.89 181.99; fill:#ffffff; " xml:space="preserve">
<g>
	<g>
		<g>
			<path d="M446.2,135.68H274.76v1.51c-0.46,0.31,11.34-0.46,28.75,11.53c1.86,1.28,3.79,2.47,5.71,3.66
				c-4.03,1.19-8.07,2.31-12.19,3.11c-1.93-1.65-3.88-3.29-5.89-4.86c-2.98-2.32-6.8-3.56-10.6-3.69
				c-3.36-0.11-7.92,0.16-10.41,2.73c-1.92,1.98-0.86,4.47,1.94,5.77c5.7,2.64,12.26,3.13,18.46,2.41c1.68-0.2,3.35-0.46,5.01-0.79
				c0.23,0.2,0.46,0.4,0.7,0.6c1.77,1.51,3.54,3.02,5.35,4.5c-8.12-0.4-12.7,0.27-20.68,1.78c-4.68,0.89-10.56,2.22-19.13,1.2
				c-3.61-0.43-7.97-2.5-10.78-4.21c-0.01-0.01,1.81-2.05,2.57-2.98c4.04-4.98,4-13.41-3.96-15.62c-7.19-2-14.92,1.59-10.05,11.01
				c2.77,5.37,8.77,8.52,8.67,8.61c-2.18,1.84-5.57,3.63-8.83,4.55c-2.79,0.79-5.38,1.11-8.02,1.01c-2.44-0.1-4.56-0.44-6.53-1.04
				c-3.28-1-6.44-2.74-8.64-4.6c-0.1-0.09,5.89-3.24,8.67-8.61c4.87-9.42-2.86-13-10.05-11.01c-7.96,2.21-8,10.65-3.96,15.62
				c0.76,0.94,2.59,2.97,2.57,2.98c-2.8,1.71-7.17,3.78-10.78,4.21c-8.57,1.02-14.45-0.31-19.13-1.2
				c-7.98-1.52-12.56-2.18-20.68-1.78c1.8-1.47,3.58-2.98,5.35-4.5c0.23-0.2,0.46-0.4,0.69-0.6c1.66,0.32,3.32,0.59,5.01,0.79
				c6.2,0.72,12.76,0.24,18.46-2.41c2.8-1.3,3.86-3.8,1.94-5.77c-2.49-2.57-7.04-2.84-10.41-2.73c-3.8,0.13-7.62,1.37-10.6,3.69
				c-2.01,1.57-3.96,3.2-5.89,4.86c-4.12-0.79-8.17-1.91-12.19-3.11c1.93-1.19,3.88-2.37,5.74-3.66
				c17.41-11.99,29.25-11.23,28.79-11.53v-1.42H18.3v1.85h164.32c-7.85,0.46-19.01,5.81-26.19,10.46c-1.25,0.81-3.81,2.34-5.08,3.11
				c-8.06-2.42-14.82-4.45-23.32-4.86c-8.63-0.42-17.3,1.69-24.18,6.64c-1.25,0.9-4.29,2.89-4.63,6.17
				c-0.2,1.91,1.45,3.77,2.91,4.58c3.58,1.97,8.75,2.45,12.73,2.25c6.38-0.31,12.47-1.48,18.47-3.48c6.6-2.19,9.89-3.77,14.57-6.04
				c2.08-1.01,4.1-2.14,6.08-3.32c4.05,1.22,8.11,2.44,12.23,3.38c-2.29,1.97-4.57,3.94-6.93,5.83c-4.37,0.35-9.26,0.3-12.82,2.93
				c-1.24,0.92-2.18,2.25-1.85,3.87c0.41,2.02,2.86,2.37,4.73,1.85c3.19-0.88,6.1-3.16,8.7-5.07c0.9-0.66,2.79-2.37,3.66-3.06
				c1.48-0.11,2.75-0.19,4.22-0.26c14.45-0.65,21.89,5.57,36.29,4.53c4.75-0.34,11.28-3.39,13.38-4.77c2.43,2.05,5.65,3.8,9.1,4.95
				c2.55,0.85,5.63,1.15,9.11,1.02c1.36-0.05,3.11-0.31,4.38-0.64c4.24-1.12,7.83-2.85,10.66-5.24c2.09,1.38,8.63,4.43,13.38,4.77
				c14.4,1.04,21.84-5.17,36.29-4.53c1.48,0.07,2.75,0.15,4.22,0.26c0.87,0.69,2.77,2.4,3.66,3.06c2.6,1.91,5.51,4.19,8.7,5.07
				c1.87,0.52,4.32,0.17,4.73-1.85c0.33-1.62-0.61-2.95-1.85-3.87c-3.55-2.63-8.44-2.58-12.82-2.93c-2.36-1.89-4.64-3.86-6.93-5.83
				c4.12-0.94,8.18-2.15,12.23-3.38c1.98,1.18,3.99,2.31,6.08,3.32c4.68,2.27,7.97,3.85,14.57,6.04c6.01,1.99,12.1,3.17,18.47,3.48
				c3.98,0.19,9.15-0.29,12.73-2.25c1.46-0.8,3.11-2.67,2.91-4.58c-0.34-3.28-3.37-5.28-4.63-6.18c-6.88-4.95-15.55-7.07-24.18-6.65
				c-8.5,0.41-15.27,2.41-23.32,4.83c-1.27-0.76-3.83-2.29-5.08-3.1c-7.19-4.65-18.34-10.04-26.19-10.5H446.2V135.68z
				 M275.74,156.15c-1.55-0.54-6.76-2.3-5.81-4.81c0.65-1.72,4.7-2.24,6.07-2.38c4.51-0.47,8.72,0.15,12.4,2.9
				c1.81,1.35,4.1,2.57,5.81,4.06C288.19,156.84,281.53,158.17,275.74,156.15z M176.02,151.77c3.68-2.75,7.9-3.37,12.4-2.9
				c1.37,0.14,5.42,0.66,6.07,2.38c0.95,2.5-4.25,4.27-5.81,4.81c-5.79,2.02-12.46,0.69-18.47-0.24
				C171.92,154.34,174.21,153.12,176.02,151.77z M138.74,157.12c-6.57,2.48-12.27,4-19.2,5.28c-3.53,0.65-6.14,1.29-11.16,1.24
				c-1.78-0.02-5.99-0.27-7.44-2.25c-2.76-3.76,2.32-6.99,3.89-8.01c3.65-2.36,8.18-4.27,12.4-5.34c5.81-1.48,11.7-0.92,16.96-0.26
				c5.97,0.75,9.89,2.34,15.64,4.06C146.1,153.99,144.55,154.93,138.74,157.12z M155.31,165.27c-2.44,1.75-5.91,4.12-9.04,4.38
				c-1.85,0.16-1.12-3.03,0.59-4.12c2.03-1.29,4.49-1.87,7.52-2.25c0.82-0.1,3.6-0.35,4.42-0.45
				C158.31,163.19,155.81,164.91,155.31,165.27z M214.19,160.43c-2.89-2.08-5.49-5.7-5.23-9.19c0.45-6.1,4.95-7.47,8.69-7.58
				c2.12-0.06,4.52,0.56,5.74,2.64c0.93,1.58,0.2,4.59-0.73,6.27C220.75,156.04,217.72,158.5,214.19,160.43z M241.76,152.65
				c-0.92-1.67-1.65-4.68-0.73-6.27c1.22-2.08,3.62-2.7,5.74-2.64c3.74,0.11,8.25,1.48,8.69,7.58c0.26,3.49-2.34,7.12-5.23,9.19
				C246.71,158.58,243.68,156.13,241.76,152.65z M310.04,163.36c3.04,0.39,5.49,0.96,7.52,2.25c1.72,1.1,2.45,4.28,0.59,4.12
				c-3.13-0.26-6.61-2.63-9.04-4.38c-0.5-0.36-3-2.08-3.49-2.45C306.44,163.01,309.23,163.26,310.04,163.36z M330.23,147.87
				c5.26-0.66,11.15-1.22,16.96,0.26c4.23,1.08,8.75,2.99,12.4,5.34c1.58,1.02,6.66,4.25,3.89,8.01c-1.45,1.97-5.66,2.23-7.44,2.24
				c-5.03,0.05-7.64-0.59-11.16-1.24c-6.93-1.28-12.62-2.8-19.2-5.28c-5.81-2.19-7.35-3.13-11.08-5.28
				C320.34,150.2,324.26,148.62,330.23,147.87z"/>
			<rect x="304.8" y="140.3" width="118.76" height="0.46"/>
			<rect x="34.62" y="140.3" width="118.76" height="0.46"/>
		</g>
		<g>
			<path d="M300.73,88.55c7.85-0.46,19.01-5.81,26.19-10.46c1.25-0.81,3.81-2.34,5.08-3.11c8.06,2.42,14.82,4.45,23.32,4.86
				c8.63,0.42,17.3-1.69,24.18-6.64c1.25-0.9,4.29-2.89,4.63-6.17c0.2-1.91-1.45-3.77-2.91-4.58c-3.58-1.97-8.75-2.45-12.73-2.25
				c-6.38,0.31-12.47,1.48-18.47,3.48c-6.6,2.19-9.89,3.77-14.57,6.04c-2.08,1.01-4.1,2.14-6.08,3.32
				c-4.05-1.22-8.11-2.44-12.23-3.38c2.29-1.97,4.57-3.94,6.93-5.83c4.37-0.35,9.26-0.3,12.82-2.93c1.24-0.92,2.18-2.25,1.85-3.87
				c-0.41-2.02-2.86-2.37-4.73-1.85c-3.19,0.88-6.1,3.16-8.7,5.07c-0.9,0.66-2.79,2.37-3.66,3.06c-1.48,0.11-2.75,0.19-4.22,0.26
				c-10.73,0.48-17.6-2.82-26.31-4.12c0.08,0.47,0.16,0.95,0.23,1.43c3.29,0.31,6.05,0.88,8.48,1.35
				c7.98,1.52,12.56,2.18,20.68,1.78c-1.8,1.47-3.58,2.98-5.35,4.5c-0.23,0.2-0.46,0.4-0.69,0.6c-1.66-0.32-3.32-0.59-5.01-0.79
				c-6.2-0.72-12.76-0.24-18.46,2.41c-2.8,1.3-3.86,3.8-1.94,5.77c2.49,2.57,7.04,2.84,10.41,2.73c3.8-0.13,7.62-1.37,10.6-3.69
				c2.01-1.57,3.96-3.2,5.89-4.86c4.12,0.79,8.17,1.91,12.19,3.11c-1.93,1.19-3.88,2.37-5.74,3.66
				c-17.41,11.99-29.25,11.23-28.79,11.53v1.42H446.2v-1.85H300.73z M344.61,68.96c6.57-2.48,12.27-4,19.2-5.28
				c3.53-0.65,6.14-1.29,11.16-1.24c1.78,0.02,5.99,0.27,7.44,2.25c2.76,3.76-2.32,6.99-3.89,8.01c-3.65,2.36-8.18,4.27-12.4,5.34
				c-5.81,1.48-11.7,0.92-16.96,0.26c-5.97-0.75-9.89-2.34-15.64-4.06C337.26,72.09,338.8,71.15,344.61,68.96z M328.05,60.81
				c2.44-1.75,5.91-4.12,9.04-4.38c1.85-0.16,1.12,3.03-0.59,4.12c-2.03,1.29-4.49,1.87-7.52,2.25c-0.82,0.1-3.6,0.35-4.42,0.45
				C325.04,62.89,327.55,61.17,328.05,60.81z M307.33,74.31c-3.68,2.75-7.9,3.37-12.4,2.9c-1.37-0.14-5.42-0.66-6.07-2.38
				c-0.95-2.5,4.25-4.27,5.81-4.81c5.79-2.02,12.46-0.69,18.47,0.24C311.43,71.74,309.15,72.96,307.33,74.31z"/>
			<path d="M173.56,70.64c-5.7-2.64-12.26-3.13-18.46-2.41c-1.68,0.2-3.35,0.46-5.01,0.79c-0.23-0.2-0.46-0.4-0.7-0.6
				c-1.77-1.51-3.54-3.02-5.35-4.5c8.12,0.4,12.7-0.27,20.68-1.78c2.42-0.46,5.16-1.03,8.42-1.34c0.07-0.48,0.15-0.95,0.23-1.42
				c-8.69,1.31-15.55,4.59-26.25,4.12c-1.48-0.07-2.75-0.15-4.22-0.26c-0.87-0.69-2.77-2.4-3.66-3.06c-2.6-1.91-5.51-4.19-8.7-5.07
				c-1.87-0.52-4.32-0.17-4.73,1.85c-0.33,1.62,0.61,2.95,1.85,3.87c3.55,2.63,8.44,2.58,12.82,2.93c2.36,1.89,4.64,3.86,6.93,5.83
				c-4.12,0.94-8.18,2.15-12.23,3.38c-1.98-1.18-3.99-2.31-6.08-3.32c-4.68-2.27-7.97-3.85-14.57-6.04
				c-6.01-1.99-12.1-3.17-18.47-3.48c-3.98-0.19-9.15,0.29-12.73,2.25c-1.46,0.8-3.11,2.67-2.91,4.58c0.34,3.28,3.37,5.28,4.63,6.18
				c6.88,4.95,15.55,7.07,24.18,6.65c8.5-0.41,15.27-2.41,23.32-4.83c1.27,0.76,3.83,2.29,5.08,3.1
				c7.19,4.65,18.34,10.04,26.19,10.5H18.3v1.85h152.58v-1.51c0.46-0.31-11.34,0.46-28.75-11.53c-1.86-1.28-3.79-2.47-5.71-3.66
				c4.03-1.19,8.07-2.31,12.19-3.11c1.93,1.65,3.88,3.29,5.89,4.86c2.98,2.32,6.8,3.56,10.6,3.69c3.36,0.11,7.92-0.16,10.41-2.73
				C177.42,74.44,176.36,71.94,173.56,70.64z M135.59,62.72c-3.04-0.39-5.49-0.96-7.52-2.25c-1.72-1.1-2.45-4.28-0.59-4.12
				c3.13,0.26,6.61,2.63,9.04,4.38c0.5,0.36,3,2.08,3.49,2.45C139.19,63.07,136.41,62.82,135.59,62.72z M115.4,78.21
				c-5.26,0.66-11.15,1.22-16.96-0.26c-4.23-1.08-8.75-2.99-12.4-5.34c-1.58-1.02-6.66-4.25-3.89-8.01
				c1.45-1.97,5.66-2.23,7.44-2.24c5.03-0.05,7.64,0.59,11.16,1.24c6.93,1.28,12.62,2.8,19.2,5.28c5.81,2.19,7.35,3.13,11.08,5.28
				C125.29,75.88,121.38,77.46,115.4,78.21z M175.71,74.74c-0.65,1.72-4.7,2.24-6.07,2.38c-4.51,0.47-8.72-0.15-12.4-2.9
				c-1.81-1.35-4.1-2.57-5.81-4.06c6.02-0.93,12.68-2.25,18.47-0.24C171.45,70.47,176.66,72.23,175.71,74.74z"/>
		</g>
		<g>
			<path d="M99.74,95.32c0,3.26-2.59,8.12-7.78,14.57c-2.36,2.88-5.1,5.87-8.22,8.95c-2.6,2.54-4.61,4.34-6.05,5.41
				c-0.17,0.14-0.35,0.22-0.52,0.22c-0.23,0-0.35-0.13-0.35-0.39c0-0.17,0.07-0.36,0.22-0.56c1.41-1.99,2.74-4.34,3.98-7.05
				c1.15-2.88,2.94-7.11,5.36-12.67c1.24-2.65,2.13-4.47,2.68-5.45l-0.22-0.13c-0.49,0.84-2.09,2.85-4.8,6.04
				c-3.46,4.03-6.55,7.17-9.26,9.41c-8.59,7.2-16.81,10.79-24.65,10.79c-3.29,0-5.97-0.76-8.04-2.29c-2.19-1.58-3.29-3.74-3.29-6.47
				c0-3.57,1.95-6.56,5.84-8.98c3.89-2.42,8.76-3.63,14.62-3.63c4.99,0,9.18,0.89,12.58,2.68c0.06,0.12,0.03,0.26-0.09,0.43
				c-0.11,0.17-0.24,0.26-0.39,0.26c-3.51-1.59-7.27-2.38-11.27-2.38c-4.84,0-9.27,1.29-13.3,3.87c-4.12,2.64-6.18,5.61-6.18,8.91
				c0,2.1,0.94,3.76,2.81,4.99c1.7,1.15,3.75,1.72,6.14,1.72c3.95,0,8.3-1.1,13.07-3.3c4.77-2.2,9.12-5.16,13.07-8.88
				c3.54-3.31,7.29-7.4,11.23-12.27c1.73-2.22,3.46-4.43,5.19-6.65c0.43-0.43,0.91-0.65,1.43-0.65c0.29,0,0.43,0.16,0.43,0.48
				c0,0.06-0.19,0.38-0.56,0.95c-0.49,0.72-0.88,1.41-1.17,2.08c-1.1,3.4-2.84,8.17-5.23,14.31c-1.9,4.04-3.6,7.12-5.1,9.25h0.22
				c0.55-0.32,1.83-1.54,3.85-3.68c2.42-2.62,4.47-5.17,6.14-7.65c4.07-6,6.1-10.5,6.1-13.49c0-0.52-0.06-0.95-0.17-1.3
				c0.06-0.37,0.29-0.53,0.69-0.48C99.41,93.08,99.74,94.08,99.74,95.32z"/>
			<path d="M104.11,111.49c0,0.09-0.09,0.26-0.26,0.52c-0.06,0.09-0.82,1.83-2.29,5.23c-1.3,2.99-1.95,4.8-1.95,5.44
				c0,0.44,0.17,0.65,0.52,0.65c0.66,0,1.76-0.92,3.29-2.77c0.11-0.03,0.24,0.02,0.37,0.13c0.13,0.11,0.18,0.24,0.15,0.39
				c-1.56,2.22-3.17,3.33-4.84,3.33c-1.36,0-2.03-0.68-2.03-2.03c0-0.46,0.23-1.31,0.69-2.55c-2.36,3.06-4.25,4.58-5.67,4.58
				c-1.47,0-2.21-0.91-2.21-2.74c0-2.55,1.25-4.99,3.76-7.31c2.42-2.23,4.91-3.35,7.48-3.35c1.3,0,2.23,0.09,2.81,0.26
				C104.05,111.33,104.11,111.41,104.11,111.49z M100.43,112.92c0-0.52-0.2-0.78-0.61-0.78c-1.18,0-2.78,1.4-4.78,4.18
				c-2,2.79-3.01,4.87-3.01,6.23c0,0.52,0.23,0.78,0.69,0.78c0.75,0,2.26-1.44,4.54-4.32c1.04-1.34,1.82-2.54,2.36-3.62
				C100.17,114.33,100.43,113.5,100.43,112.92z"/>
			<path d="M112.02,111.66c-0.95,1.9-1.89,3.81-2.81,5.71c-1.5,3.09-2.25,4.89-2.25,5.41c0,0.37,0.16,0.56,0.48,0.56
				c0.43,0,1.08-0.36,1.95-1.08c0.72-0.58,1.27-1.11,1.64-1.6c0.09-0.03,0.2,0.01,0.35,0.11c0.14,0.1,0.2,0.22,0.17,0.37
				c-0.4,0.58-0.97,1.18-1.69,1.82c-1.15,0.98-2.21,1.47-3.16,1.47c-1.44,0-2.16-0.69-2.16-2.08c0-0.58,0.68-2.36,2.03-5.36
				c0.55-1.12,1.18-2.49,1.9-4.11c0.11-0.32,0.01-0.48-0.3-0.48c-0.63,0-0.95-0.22-0.95-0.65c0-0.43,0.24-0.63,0.74-0.61
				c1.24,0.09,2.42,0.03,3.55-0.17c0.2-0.03,0.36,0.02,0.48,0.15C112.1,111.25,112.11,111.43,112.02,111.66z M113.84,106.65
				c0,0.52-0.18,1-0.54,1.45c-0.36,0.45-0.8,0.67-1.32,0.67c-0.98,0-1.47-0.56-1.47-1.69c0-0.52,0.18-1,0.54-1.45
				c0.36-0.45,0.8-0.67,1.32-0.67C113.35,104.96,113.84,105.52,113.84,106.65z"/>
			<path d="M127.55,100.81c0,0.84-0.39,2-1.17,3.5c-0.72,1.38-1.6,2.7-2.64,3.93c-1.79,2.19-3.73,3.96-5.84,5.32
				c-2.48,5.56-3.72,8.71-3.72,9.43c0,0.43,0.2,0.65,0.61,0.65c0.61,0,1.4-0.33,2.38-0.99c0.84-0.55,1.4-1.02,1.69-1.43
				c0.43,0.06,0.65,0.23,0.65,0.52c-0.4,0.52-0.98,1.04-1.73,1.56c-1.12,0.75-2.23,1.12-3.33,1.12c-1.53,0-2.29-0.68-2.29-2.03
				c0-1.07,0.79-3.46,2.38-7.18c1.41-3.34,2.72-6.08,3.94-8.22c1.15-2.05,2.41-3.81,3.76-5.28c1.56-1.67,2.88-2.51,3.98-2.51
				C127.1,99.21,127.55,99.74,127.55,100.81z M125.99,100.76c0-0.32-0.13-0.48-0.39-0.48c-0.35,0-1.04,0.73-2.08,2.18
				c-1.04,1.46-1.92,2.99-2.64,4.61l-2.21,4.8c1.82-1.5,3.33-3.2,4.54-5.1C125.07,103.89,125.99,101.89,125.99,100.76z"/>
			<path d="M130.36,110.02c0,0.2-0.27,0.52-0.8,0.95c-0.53,0.43-0.8,0.94-0.8,1.51c0,0.49,0.12,1.07,0.37,1.73
				c0.24,0.66,0.37,1.4,0.37,2.21c0,2.25-0.71,4.14-2.14,5.66c-1.43,1.53-3.06,2.29-4.91,2.29c-1.79,0-2.68-0.82-2.68-2.47
				c0-0.78,0.2-1.41,0.61-1.9c0.4-0.49,0.85-0.74,1.34-0.74c0.98,0,1.47,0.5,1.47,1.51c0,0.58-0.2,1.04-0.6,1.38
				c-0.4,0.35-0.84,0.52-1.3,0.52c-0.26,0-0.37,0.09-0.35,0.26c0.14,0.52,0.56,0.78,1.25,0.78c1.21,0,2.29-0.78,3.24-2.34
				c0.95-1.56,1.43-3.33,1.43-5.32c0-0.63-0.14-1.08-0.43-1.34c-0.17-0.2-0.36-0.2-0.56,0c-0.63,0.69-1.37,1.47-2.21,2.33
				c-0.14,0.06-0.3,0.02-0.48-0.13c-0.17-0.14-0.24-0.29-0.22-0.43c0.66-0.69,1.76-1.95,3.29-3.76c0.61-0.78,1.21-1.57,1.82-2.38
				c0.55-0.72,1.07-1.08,1.56-1.08C130.11,109.29,130.36,109.53,130.36,110.02z"/>
			<path d="M154.1,100.12c0,0.63-0.26,1.5-0.78,2.6c-0.63,1.33-1.5,2.61-2.59,3.85c-1.38,1.53-3.27,3.07-5.67,4.63
				c-0.38,0.86-0.75,1.73-1.12,2.59c1.73-1.84,3.21-2.77,4.45-2.77c1.61,0,2.42,0.87,2.42,2.6c0,2.22-0.97,4.56-2.9,7.01
				c-2.02,2.54-4.02,3.81-6.01,3.81c-0.95,0-1.69-0.24-2.21-0.74c-0.52-0.49-0.78-1.1-0.78-1.82c0-1.84,0.79-4.69,2.38-8.52
				c1.59-3.83,3.36-7.15,5.32-9.95c2.25-3.23,4.17-4.84,5.75-4.84C153.52,98.56,154.1,99.08,154.1,100.12z M148.22,113.13
				c0-0.58-0.23-0.87-0.69-0.87c-0.43,0-1.14,0.46-2.12,1.38c-1.07,1.01-1.99,2.15-2.77,3.42c-1.1,2.88-1.64,4.67-1.64,5.36
				c0,0.75,0.35,1.12,1.04,1.12c1.15,0,2.48-1.32,3.98-3.98C147.48,117.01,148.22,114.86,148.22,113.13z M152.46,100.25
				c0-0.46-0.19-0.7-0.56-0.7c-0.46,0-1.12,0.59-1.97,1.78c-0.85,1.19-1.68,2.68-2.49,4.47c-0.43,0.9-0.97,2.07-1.6,3.52
				c1.61-0.95,3-2.24,4.15-3.87C151.64,103.17,152.46,101.44,152.46,100.25z"/>
			<path d="M163.53,111.79c-0.14,0.32-1.37,3.63-3.68,9.95c0.81-0.58,1.35-1.07,1.64-1.47c0.35,0,0.59,0.19,0.74,0.56
				c-0.49,0.58-1.46,1.34-2.9,2.29l-0.3,0.87c-0.87,2.31-2.18,4.48-3.94,6.53c-2.02,2.31-3.89,3.46-5.62,3.46
				c-1.21,0-1.82-0.6-1.82-1.82c0-0.69,0.4-1.55,1.21-2.57c0.81-1.02,1.82-1.95,3.03-2.79c0.81-0.55,2.31-1.5,4.5-2.85l1.34-3.33
				c-0.61,0.78-1.4,1.56-2.38,2.34c-1.21,0.98-2.15,1.47-2.81,1.47c-0.58,0-1.06-0.2-1.45-0.61c-0.39-0.4-0.58-0.89-0.58-1.47
				c0-0.84,0.7-2.48,2.1-4.93c1.51-2.65,2.27-4.18,2.27-4.58c0-0.46-0.19-0.69-0.57-0.69c-0.32,0-0.91,0.23-1.76,0.69
				c-0.32-0.09-0.53-0.29-0.61-0.61c0.63-0.81,1.7-1.21,3.2-1.21c1.35,0,2.03,0.59,2.03,1.77c0,0.63-0.79,2.41-2.36,5.32
				c-1.57,2.91-2.36,4.53-2.36,4.84s0.14,0.48,0.43,0.48c0.87,0,2.12-0.94,3.76-2.81c1.41-1.67,2.35-3.04,2.81-4.11l1.77-4.32
				c0.26-0.55,0.52-0.85,0.78-0.91c0.4-0.09,0.69-0.13,0.87-0.13c0.49,0,0.74,0.13,0.74,0.39
				C163.62,111.59,163.59,111.68,163.53,111.79z M155.87,125.29c-1.42,0.87-2.34,1.46-2.74,1.78c-0.93,0.78-1.74,1.64-2.44,2.57
				c-0.81,1.07-1.22,1.93-1.22,2.57c0,0.52,0.23,0.78,0.7,0.78c0.75,0,1.65-0.69,2.7-2.07c1.04-1.38,1.93-2.95,2.66-4.72
				L155.87,125.29z"/>
			<path d="M212.48,100.12c0,4.24-1.59,8.32-4.76,12.24c-2.85,3.6-6.54,6.54-11.05,8.8c-4.51,2.26-8.82,3.4-12.91,3.4
				c-0.75,0-1.49-0.06-2.21-0.17c0.35,0.98,0.92,1.92,1.73,2.81c0.03,0.17-0.06,0.32-0.26,0.45c-0.2,0.13-0.4,0.15-0.61,0.06
				c-0.98-0.92-1.66-2.1-2.03-3.55c-4.41-1.04-6.62-3.88-6.62-8.52c0-4.12,1.63-8.12,4.89-11.98c2.91-3.46,6.67-6.31,11.29-8.56
				c4.5-2.16,8.74-3.24,12.71-3.24c2.62,0,4.67,0.3,6.14,0.91c0.09,0.14,0.09,0.29,0,0.43c-0.12,0.14-0.26,0.23-0.43,0.26
				c-1.27-0.46-3.17-0.69-5.7-0.69c-3.54,0-7.44,1.28-11.7,3.85c-4.15,2.51-7.62,5.61-10.41,9.3c-2.99,3.98-4.49,7.78-4.49,11.42
				c0,3.03,1.37,4.99,4.11,5.88c-0.17-0.92-0.26-1.95-0.26-3.07c0-4.04,1.17-8.13,3.52-12.28c2.35-4.15,5.36-7.54,9.02-10.16
				c3.92-2.8,7.9-4.2,11.94-4.2c2.59,0,4.63,0.68,6.1,2.03C211.82,96.74,212.48,98.27,212.48,100.12z M210.84,99.55
				c0-1.64-0.61-2.91-1.82-3.8c-1.21-0.89-2.75-1.34-4.63-1.34c-3.55,0-7.22,1.51-11.03,4.53c-3.46,2.76-6.38,6.25-8.76,10.45
				c-2.38,4.2-3.57,8.05-3.57,11.53c0,0.89,0.09,1.73,0.26,2.5c0.49,0.09,0.95,0.13,1.38,0.13c3.6,0,7.64-1.2,12.11-3.61
				c4.47-2.4,8.19-5.39,11.16-8.96C209.21,107.07,210.84,103.26,210.84,99.55z"/>
			<path d="M218.93,113.31c0,0.72-0.21,1.28-0.63,1.67c-0.42,0.39-0.86,0.58-1.32,0.58c-0.87,0-1.3-0.41-1.3-1.24
				c0-0.4,0.22-0.78,0.67-1.13c0.45-0.36,0.67-0.62,0.67-0.79c0-0.28-0.14-0.43-0.43-0.43c-0.98,0-2.18,1.47-3.59,4.41
				c-1.3,2.77-1.95,4.8-1.95,6.1c0,0.63,0.27,0.95,0.82,0.95c0.72,0,1.61-0.47,2.68-1.4c0.89-0.76,1.51-1.43,1.86-2.01
				c0.14-0.06,0.3-0.02,0.45,0.11c0.16,0.13,0.24,0.3,0.24,0.5c-0.52,0.72-1.2,1.44-2.03,2.16c-1.27,1.1-2.48,1.64-3.63,1.64
				c-1.87,0-2.81-1.2-2.81-3.59c0-2.08,0.91-4.24,2.75-6.49c1.83-2.25,3.63-3.37,5.38-3.37
				C218.21,110.97,218.93,111.75,218.93,113.31z"/>
			<path d="M234.54,101.03c0,1.73-1.24,3.97-3.71,6.71c-2.16,2.42-4.17,4.13-6.03,5.11c-0.73,1.73-1.48,3.59-2.26,5.57
				c0.86-1.18,2.01-2.51,3.45-3.98c1.44-1.47,2.48-2.4,3.11-2.79c0.63-0.39,1.27-0.58,1.9-0.58c0.34,0,0.52,0.16,0.52,0.48
				c0-0.09-0.2,0.28-0.61,1.08c-0.61,1.21-1.43,2.96-2.46,5.23c-1.24,2.85-1.86,4.5-1.86,4.93s0.24,0.65,0.74,0.65
				c1.07,0,2.13-0.92,3.2-2.77c0.52-0.17,0.79-0.09,0.82,0.26c-0.43,0.72-0.98,1.41-1.64,2.08c-0.98,0.95-1.93,1.43-2.85,1.43
				c-1.62,0-2.42-0.65-2.42-1.95c0-0.92,0.45-2.42,1.34-4.5c0.6-1.44,1.15-2.58,1.64-3.42l-0.13-0.22
				c-0.23,0.15-0.82,0.72-1.77,1.74c-1.01,1.13-1.82,2.1-2.42,2.91c-1.18,1.62-1.99,3.03-2.42,4.21c-0.15,0.38-0.95,0.78-2.42,1.22
				c-0.17,0.06-0.29,0.03-0.35-0.09c-0.09-0.14-0.07-0.36,0.04-0.65l6.75-16.3c0.89-2.1,2.1-3.99,3.63-5.67
				c1.67-1.79,3.18-2.68,4.54-2.68C233.98,99.03,234.54,99.7,234.54,101.03z M232.85,100.81c0-0.46-0.17-0.69-0.52-0.69
				c-0.72,0-1.69,0.98-2.9,2.94c-0.92,1.41-2.25,4.14-3.98,8.17c1.38-0.81,2.93-2.35,4.63-4.63
				C231.93,104.12,232.85,102.19,232.85,100.81z"/>
			<path d="M242.37,112.92c0,1.87-1.08,3.56-3.24,5.06c-1.73,1.15-3.31,1.8-4.76,1.95c-0.35,0.92-0.52,1.63-0.52,2.12
				c0,1.01,0.53,1.51,1.6,1.51c0.86,0,1.84-0.39,2.94-1.17c0.86-0.63,1.53-1.27,1.99-1.9c0.37-0.2,0.61-0.07,0.69,0.39
				c-0.49,0.69-1.17,1.37-2.03,2.03c-1.36,0.98-2.68,1.47-3.98,1.47c-2.22,0-3.33-1.1-3.33-3.29c0-2.22,0.97-4.46,2.9-6.72
				c1.93-2.26,3.75-3.4,5.45-3.4C241.6,110.97,242.37,111.62,242.37,112.92z M240.55,112.66c0-0.55-0.2-0.82-0.6-0.82
				c-0.6,0-1.46,0.81-2.58,2.42c-1.03,1.44-1.92,3.01-2.66,4.71c1.29-0.06,2.58-0.81,3.89-2.25
				C239.9,115.28,240.55,113.93,240.55,112.66z"/>
			<path d="M249.81,120.79c-0.4,0.69-0.94,1.38-1.62,2.08c-1.05,1.01-2.05,1.51-2.99,1.51c-0.63,0-1.16-0.2-1.6-0.61
				c-0.44-0.4-0.66-0.92-0.66-1.56c0-0.75,0.81-2.55,2.42-5.41c1.33-2.34,1.99-3.63,1.99-3.89c0-0.37-0.17-0.56-0.52-0.56
				c-0.4,0-0.82,0.32-1.25,0.95c-0.78,1.1-1.28,1.76-1.51,1.99c-0.03,0.03-0.07,0.04-0.13,0.04c-0.15,0-0.3-0.06-0.45-0.19
				c-0.16-0.13-0.22-0.27-0.19-0.41c0.81-1.04,1.27-1.7,1.38-1.99c-0.43-0.86-0.65-1.63-0.65-2.29c0-1.41,0.52-2.12,1.56-2.12
				c0.95,0,1.43,0.5,1.43,1.51c0,0.72-0.09,1.23-0.26,1.51l0.13,0.13c0.92-0.35,1.54-0.52,1.86-0.52c0.72,0,1.08,0.52,1.08,1.55
				c0,0.63-0.26,1.45-0.78,2.46c-0.03,0.09-0.56,1.06-1.6,2.93c-0.55,0.95-1.08,1.89-1.6,2.82c-0.52,0.93-0.78,1.6-0.78,2
				c0,0.43,0.17,0.65,0.51,0.65c0.54,0,1.27-0.45,2.21-1.37c0.62-0.57,1.18-1.18,1.66-1.83
				C249.76,120.27,249.89,120.47,249.81,120.79z"/>
			<path d="M261.09,112.92c0,1.87-1.08,3.56-3.24,5.06c-1.73,1.15-3.31,1.8-4.76,1.95c-0.35,0.92-0.52,1.63-0.52,2.12
				c0,1.01,0.53,1.51,1.6,1.51c0.86,0,1.84-0.39,2.94-1.17c0.86-0.63,1.53-1.27,1.99-1.9c0.37-0.2,0.61-0.07,0.69,0.39
				c-0.49,0.69-1.17,1.37-2.03,2.03c-1.36,0.98-2.68,1.47-3.98,1.47c-2.22,0-3.33-1.1-3.33-3.29c0-2.22,0.97-4.46,2.9-6.72
				c1.93-2.26,3.75-3.4,5.45-3.4C260.33,110.97,261.09,111.62,261.09,112.92z M259.28,112.66c0-0.55-0.2-0.82-0.6-0.82
				c-0.6,0-1.46,0.81-2.58,2.42c-1.03,1.44-1.92,3.01-2.66,4.71c1.29-0.06,2.58-0.81,3.89-2.25
				C258.63,115.28,259.28,113.93,259.28,112.66z"/>
			<path d="M270.99,105.93l-2.76,5.82l1.99,0c0.41,0,0.61,0.19,0.61,0.56c0,0.37-0.2,0.56-0.6,0.56h-2.53l-4.04,8.61
				c-0.23,0.49-0.35,0.91-0.35,1.25c0,0.58,0.22,0.86,0.65,0.86c0.78,0,1.87-0.81,3.29-2.42c0.32-0.11,0.55-0.04,0.69,0.22
				c-1.38,1.99-2.88,2.98-4.5,2.98c-1.67,0-2.51-0.69-2.51-2.07c0-0.52,0.13-1.07,0.39-1.64l3.74-7.78l-1.83-0.01
				c-0.38,0-0.57-0.19-0.57-0.56c0-0.37,0.19-0.56,0.57-0.56h2.37l2.73-5.84c0.26-0.55,0.76-0.82,1.51-0.82
				c0.78,0,1.17,0.18,1.17,0.53C271,105.71,270.99,105.81,270.99,105.93z"/>
			<path d="M282.59,111.79c-0.15,0.32-1.37,3.63-3.68,9.95c0.81-0.58,1.36-1.07,1.64-1.47c0.35,0,0.59,0.19,0.74,0.56
				c-0.49,0.58-1.46,1.34-2.9,2.29l-0.3,0.87c-0.87,2.31-2.18,4.48-3.94,6.53c-2.02,2.31-3.89,3.46-5.62,3.46
				c-1.21,0-1.82-0.6-1.82-1.82c0-0.69,0.4-1.55,1.21-2.57c0.81-1.02,1.82-1.95,3.03-2.79c0.81-0.55,2.31-1.5,4.5-2.85l1.34-3.33
				c-0.61,0.78-1.4,1.56-2.38,2.34c-1.21,0.98-2.15,1.47-2.81,1.47c-0.58,0-1.06-0.2-1.45-0.61c-0.39-0.4-0.58-0.89-0.58-1.47
				c0-0.84,0.7-2.48,2.1-4.93c1.51-2.65,2.27-4.18,2.27-4.58c0-0.46-0.19-0.69-0.57-0.69c-0.32,0-0.91,0.23-1.76,0.69
				c-0.32-0.09-0.53-0.29-0.61-0.61c0.63-0.81,1.7-1.21,3.2-1.21c1.36,0,2.03,0.59,2.03,1.77c0,0.63-0.79,2.41-2.36,5.32
				c-1.57,2.91-2.36,4.53-2.36,4.84s0.14,0.48,0.43,0.48c0.87,0,2.12-0.94,3.76-2.81c1.41-1.67,2.35-3.04,2.81-4.11l1.77-4.32
				c0.26-0.55,0.52-0.85,0.78-0.91c0.4-0.09,0.69-0.13,0.87-0.13c0.49,0,0.74,0.13,0.74,0.39
				C282.67,111.59,282.64,111.68,282.59,111.79z M274.93,125.29c-1.42,0.87-2.34,1.46-2.74,1.78c-0.93,0.78-1.74,1.64-2.44,2.57
				c-0.81,1.07-1.22,1.93-1.22,2.57c0,0.52,0.23,0.78,0.7,0.78c0.75,0,1.65-0.69,2.7-2.07c1.04-1.38,1.93-2.95,2.66-4.72
				L274.93,125.29z"/>
			<path d="M296.43,111.49c0,0.09-0.09,0.26-0.26,0.52c-0.06,0.09-0.82,1.83-2.29,5.23c-1.3,2.99-1.95,4.8-1.95,5.44
				c0,0.44,0.17,0.65,0.52,0.65c0.66,0,1.76-0.92,3.29-2.77c0.11-0.03,0.24,0.02,0.37,0.13c0.13,0.11,0.18,0.24,0.15,0.39
				c-1.56,2.22-3.17,3.33-4.84,3.33c-1.36,0-2.03-0.68-2.03-2.03c0-0.46,0.23-1.31,0.69-2.55c-2.36,3.06-4.25,4.58-5.66,4.58
				c-1.47,0-2.21-0.91-2.21-2.74c0-2.55,1.25-4.99,3.76-7.31c2.42-2.23,4.91-3.35,7.48-3.35c1.3,0,2.23,0.09,2.81,0.26
				C296.37,111.33,296.43,111.41,296.43,111.49z M292.75,112.92c0-0.52-0.2-0.78-0.6-0.78c-1.18,0-2.78,1.4-4.78,4.18
				c-2,2.79-3.01,4.87-3.01,6.23c0,0.52,0.23,0.78,0.69,0.78c0.75,0,2.26-1.44,4.54-4.32c1.04-1.34,1.82-2.54,2.36-3.62
				C292.48,114.33,292.75,113.5,292.75,112.92z"/>
			<path d="M310.18,111.53c0-0.09-0.2,0.28-0.6,1.08c-0.61,1.21-1.41,2.96-2.42,5.23c-1.27,2.85-1.9,4.5-1.9,4.93
				s0.26,0.65,0.78,0.65c1.04,0,2.09-0.92,3.16-2.77c0.55-0.17,0.82-0.09,0.82,0.26c-0.4,0.72-0.94,1.41-1.6,2.08
				c-1.01,0.95-1.96,1.43-2.85,1.43c-1.64,0-2.47-0.65-2.47-1.95c0-0.92,0.45-2.42,1.34-4.5c0.63-1.44,1.2-2.58,1.69-3.42
				l-0.17-0.22c-0.69,0.4-2.09,1.95-4.19,4.63c-1.36,1.76-2.45,3.23-3.29,4.41c-0.4,0.61-0.99,0.91-1.77,0.91
				c-0.35,0-0.52-0.17-0.52-0.52c0-0.06,0.79-1.78,2.38-5.16c1.38-2.98,2.08-4.75,2.08-5.3c0-0.55-0.2-0.82-0.61-0.82
				c-0.14,0-0.71,0.17-1.69,0.52c-0.32-0.12-0.42-0.35-0.3-0.71c1.1-0.83,2.28-1.24,3.55-1.24c0.4,0,0.77,0.14,1.1,0.41
				c0.33,0.28,0.5,0.66,0.5,1.15c0,0.9-0.73,2.83-2.21,5.79l0.17,0.09c0.84-1.15,1.99-2.49,3.46-4c1.47-1.51,2.52-2.47,3.16-2.85
				c0.63-0.39,1.28-0.58,1.95-0.58C310.02,111.06,310.18,111.22,310.18,111.53z"/>
			<path d="M324.49,111.49c0,0.09-0.09,0.26-0.26,0.52c-0.06,0.09-0.82,1.83-2.29,5.23c-1.3,2.99-1.95,4.8-1.95,5.44
				c0,0.44,0.17,0.65,0.52,0.65c0.66,0,1.76-0.92,3.29-2.77c0.11-0.03,0.24,0.02,0.37,0.13c0.13,0.11,0.18,0.24,0.15,0.39
				c-1.56,2.22-3.17,3.33-4.84,3.33c-1.36,0-2.03-0.68-2.03-2.03c0-0.46,0.23-1.31,0.69-2.55c-2.36,3.06-4.25,4.58-5.66,4.58
				c-1.47,0-2.21-0.91-2.21-2.74c0-2.55,1.25-4.99,3.76-7.31c2.42-2.23,4.91-3.35,7.48-3.35c1.3,0,2.23,0.09,2.81,0.26
				C324.43,111.33,324.49,111.41,324.49,111.49z M320.82,112.92c0-0.52-0.2-0.78-0.6-0.78c-1.18,0-2.78,1.4-4.78,4.18
				c-2,2.79-3.01,4.87-3.01,6.23c0,0.52,0.23,0.78,0.69,0.78c0.75,0,2.26-1.44,4.54-4.32c1.04-1.34,1.82-2.54,2.36-3.62
				C320.55,114.33,320.82,113.5,320.82,112.92z"/>
			<path d="M388.45,93.11c-1.41,2.08-3.79,6.49-7.14,13.23c-1.84,3.86-3.69,7.73-5.54,11.59c-2.19,4.5-4.02,7.63-5.49,9.38
				c-3.78,4.58-7.7,6.88-11.76,6.88c-1.1,0-2-0.32-2.7-0.97c-0.71-0.65-1.06-1.51-1.06-2.57c0-0.81,0.24-1.46,0.71-1.95
				c0.48-0.49,1.06-0.74,1.75-0.74c0.61,0,1.12,0.21,1.56,0.63c0.43,0.42,0.65,0.96,0.65,1.62c0,0.58-0.21,1.08-0.63,1.51
				c-0.42,0.43-0.9,0.65-1.45,0.65c-0.35,0-0.55,0.06-0.61,0.17c-0.06,0.11,0.03,0.27,0.26,0.45c0.23,0.19,0.69,0.28,1.38,0.28
				c3,0,6.05-2.19,9.17-6.57c1.1-1.56,2.71-4.4,4.84-8.52c1.67-3.26,3.33-6.53,4.97-9.82c-2.62,3.23-4.89,5.84-6.79,7.83
				c-5.22,5.48-9.24,8.22-12.07,8.22c-2.08,0-3.11-1.11-3.11-3.33c0-1.53,1.1-4.08,3.29-7.65c2.02-3.11,4.05-6.24,6.1-9.38
				c2.19-3.49,3.29-5.94,3.29-7.35c0-2.36-1.7-3.55-5.1-3.55c-4.73,0-9.33,1.2-13.8,3.59c-3.78,2.05-6.96,4.63-9.56,7.74
				c-2.39,2.88-3.59,5.33-3.59,7.35c0,1.27,0.37,2.23,1.12,2.9c0.66,0.58,1.5,0.86,2.51,0.86c4.47,0,8.82-1.83,13.06-5.49
				c2.13-1.82,4.18-3.98,6.14-6.49c1.84-2.34,2.94-4.08,3.29-5.23c0.37-0.49,0.68-0.43,0.91,0.17c-0.38,1.27-1.34,3.03-2.9,5.28
				c-2.02,2.88-4.3,5.32-6.83,7.31c-4.56,3.63-8.95,5.45-13.19,5.45c-3.66,0-5.49-1.74-5.49-5.23c0-2.54,1.23-5.33,3.7-8.39
				c2.47-3.06,5.62-5.59,9.45-7.61c4.27-2.25,8.64-3.37,13.1-3.37c6.25,0,9.38,1.99,9.38,5.97c0,2.05-1.12,4.96-3.37,8.74
				c-0.89,1.5-3,4.63-6.31,9.38c-2.25,3.26-3.37,5.26-3.37,6.01c0,0.81,0.49,1.21,1.47,1.21c2.36,0,6.1-2.72,11.2-8.17
				c5.71-6.11,9.5-10.81,11.37-14.1l4.54-8c0.03-0.09,0.58-0.26,1.64-0.52c0.75-0.2,1.12-0.11,1.12,0.26
				C388.58,92.85,388.54,92.97,388.45,93.11z"/>
			<path d="M392.73,111.49c0,0.09-0.09,0.26-0.26,0.52c-0.06,0.09-0.82,1.83-2.29,5.23c-1.3,2.99-1.95,4.8-1.95,5.44
				c0,0.44,0.17,0.65,0.52,0.65c0.66,0,1.76-0.92,3.29-2.77c0.11-0.03,0.24,0.02,0.37,0.13c0.13,0.11,0.18,0.24,0.15,0.39
				c-1.56,2.22-3.17,3.33-4.84,3.33c-1.36,0-2.03-0.68-2.03-2.03c0-0.46,0.23-1.31,0.69-2.55c-2.36,3.06-4.25,4.58-5.66,4.58
				c-1.47,0-2.21-0.91-2.21-2.74c0-2.55,1.25-4.99,3.76-7.31c2.42-2.23,4.91-3.35,7.48-3.35c1.3,0,2.23,0.09,2.81,0.26
				C392.68,111.33,392.73,111.41,392.73,111.49z M389.06,112.92c0-0.52-0.2-0.78-0.6-0.78c-1.18,0-2.78,1.4-4.78,4.18
				c-2,2.79-3.01,4.87-3.01,6.23c0,0.52,0.23,0.78,0.69,0.78c0.75,0,2.26-1.44,4.54-4.32c1.04-1.34,1.82-2.54,2.36-3.62
				C388.79,114.33,389.06,113.5,389.06,112.92z"/>
			<path d="M406.49,111.53c0-0.09-0.2,0.28-0.6,1.08c-0.61,1.21-1.41,2.96-2.42,5.23c-1.27,2.85-1.9,4.5-1.9,4.93
				s0.26,0.65,0.78,0.65c1.04,0,2.09-0.92,3.16-2.77c0.55-0.17,0.82-0.09,0.82,0.26c-0.4,0.72-0.94,1.41-1.6,2.08
				c-1.01,0.95-1.96,1.43-2.85,1.43c-1.64,0-2.47-0.65-2.47-1.95c0-0.92,0.45-2.42,1.34-4.5c0.63-1.44,1.2-2.58,1.69-3.42
				l-0.17-0.22c-0.69,0.4-2.09,1.95-4.19,4.63c-1.36,1.76-2.45,3.23-3.29,4.41c-0.4,0.61-0.99,0.91-1.77,0.91
				c-0.35,0-0.52-0.17-0.52-0.52c0-0.06,0.79-1.78,2.38-5.16c1.38-2.98,2.08-4.75,2.08-5.3c0-0.55-0.2-0.82-0.61-0.82
				c-0.14,0-0.71,0.17-1.69,0.52c-0.32-0.12-0.42-0.35-0.3-0.71c1.1-0.83,2.28-1.24,3.55-1.24c0.4,0,0.77,0.14,1.1,0.41
				c0.33,0.28,0.5,0.66,0.5,1.15c0,0.9-0.73,2.83-2.21,5.79l0.17,0.09c0.84-1.15,1.99-2.49,3.46-4c1.47-1.51,2.52-2.47,3.16-2.85
				c0.63-0.39,1.28-0.58,1.95-0.58C406.33,111.06,406.49,111.22,406.49,111.53z"/>
			<path d="M420.8,111.49c0,0.09-0.09,0.26-0.26,0.52c-0.06,0.09-0.82,1.83-2.29,5.23c-1.3,2.99-1.95,4.8-1.95,5.44
				c0,0.44,0.17,0.65,0.52,0.65c0.66,0,1.76-0.92,3.29-2.77c0.11-0.03,0.24,0.02,0.37,0.13c0.13,0.11,0.18,0.24,0.15,0.39
				c-1.56,2.22-3.17,3.33-4.84,3.33c-1.36,0-2.03-0.68-2.03-2.03c0-0.46,0.23-1.31,0.69-2.55c-2.36,3.06-4.25,4.58-5.66,4.58
				c-1.47,0-2.21-0.91-2.21-2.74c0-2.55,1.25-4.99,3.76-7.31c2.42-2.23,4.91-3.35,7.48-3.35c1.3,0,2.23,0.09,2.81,0.26
				C420.74,111.33,420.8,111.41,420.8,111.49z M417.12,112.92c0-0.52-0.2-0.78-0.6-0.78c-1.18,0-2.78,1.4-4.78,4.18
				c-2,2.79-3.01,4.87-3.01,6.23c0,0.52,0.23,0.78,0.69,0.78c0.75,0,2.26-1.44,4.54-4.32c1.04-1.34,1.82-2.54,2.36-3.62
				C416.86,114.33,417.12,113.5,417.12,112.92z"/>
		</g>
	</g>
	<g>
		<g>
			<path d="M229.82,64.6c0.52,0.65,1.52,1.03,3.01,1.15c1.48,0.12,2.26,0.19,2.34,0.21c0.29,0.08,0.7,0.2,1.25,0.35
				s0.96,0.25,1.25,0.27c0.05,0,0.27,0.1,0.66,0.29c0.39,0.2,0.68,0.29,0.86,0.29l-0.51,1.76c-0.16,0-0.42-0.08-0.78-0.25
				s-0.66-0.25-0.9-0.25c-0.29-0.03-0.96-0.09-2.03-0.2s-1.77-0.17-2.11-0.2c-0.55,0-0.99,0.01-1.33,0.02s-0.7,0.03-1.09,0.06
				c-0.94,0-1.6-0.26-1.99-0.78l-37.64-47.75v28.77c0,2.03,0.13,4.24,0.39,6.64c0.05,0.65,0.16,1.56,0.31,2.73s0.26,2.06,0.31,2.65
				c0.1,0.78,0.17,1.35,0.2,1.7s0.13,0.98,0.31,1.89c0.1,0.73,0.23,1.32,0.39,1.76c0.39,0.16,0.85,0.23,1.37,0.23
				c0.31,0.03,0.61,0.05,0.88,0.06c0.27,0.01,0.59,0.05,0.96,0.1c0.73,0.08,1.34,0.18,1.84,0.31l-0.08,1.99
				c-0.49-0.16-1-0.23-1.52-0.23c-0.99-0.1-1.74-0.16-2.26-0.16c-0.37-0.05-1.42-0.08-3.16-0.08l-1.6-12.77l-1.95,12.61
				c-0.29,0.08-0.53,0.14-0.72,0.18c-0.2,0.04-0.49,0.11-0.88,0.21c-0.34,0.03-0.7,0.1-1.09,0.21c-0.39,0.12-0.77,0.21-1.13,0.29
				c-0.18,0.08-0.43,0.18-0.74,0.29c-0.31,0.12-0.56,0.21-0.74,0.27s-0.38,0.14-0.59,0.21c-0.16,0.05-0.29,0.09-0.41,0.12
				c-0.12,0.03-0.28,0.06-0.49,0.12l-0.08-1.99c0.16-0.03,0.34-0.06,0.55-0.12c0.21-0.05,0.38-0.09,0.51-0.12
				c0.39-0.18,0.8-0.35,1.23-0.51c0.43-0.16,0.76-0.29,1-0.39c0.26-0.1,0.5-0.2,0.72-0.27c0.22-0.08,0.51-0.17,0.88-0.27
				c0.05-0.26,0.1-0.45,0.14-0.59c0.04-0.13,0.1-0.34,0.18-0.62c0.29-1.25,0.51-2.42,0.66-3.51c0.1-0.81,0.19-1.41,0.25-1.82
				c0.06-0.4,0.16-1.05,0.29-1.93c0.34-1.82,0.66-3.65,0.98-5.49c0.31-1.84,0.47-3.49,0.47-4.98V15.99
				c-0.76-1.43-1.87-2.39-3.36-2.89c-0.52-0.16-1.34-0.29-2.46-0.39c-0.29-0.05-0.64-0.08-1.05-0.08l0.08-1.99
				c0.37,0,0.65,0.01,0.86,0.02c0.21,0.01,0.43,0.03,0.66,0.06c0.57,0.05,1.03,0.11,1.39,0.16c0.35,0.05,0.74,0.11,1.15,0.16
				c1.02,0.11,2.25,0.51,3.71,1.21L229.82,64.6z M200.97,20.32c0.16,0.21,0.37,0.49,0.64,0.84s0.59,0.76,0.96,1.23l1.17,1.37
				l24.79,31.08l0.31-25.26c0-0.91-0.31-2.76-0.94-5.54c-0.62-2.78-0.95-4.35-0.98-4.69c-0.1-0.68-0.31-1.85-0.62-3.51
				c-0.08-0.29-0.14-0.49-0.18-0.62c-0.04-0.13-0.08-0.32-0.14-0.59c-0.29-0.1-0.53-0.19-0.72-0.25c-0.2-0.06-0.49-0.16-0.88-0.29
				c-0.42-0.18-0.81-0.34-1.17-0.47c-0.37-0.13-0.73-0.27-1.09-0.43c-0.13-0.03-0.3-0.06-0.51-0.12c-0.21-0.05-0.38-0.09-0.51-0.12
				l0.08-1.99c0.21,0.05,0.37,0.09,0.49,0.12c0.12,0.03,0.24,0.07,0.37,0.12c0.73,0.26,1.43,0.53,2.11,0.82
				c0.55,0.13,1,0.23,1.35,0.31c0.35,0.08,0.64,0.13,0.88,0.16c0.29,0.08,0.53,0.14,0.74,0.18s0.49,0.11,0.86,0.21l1.91,12.65
				l1.6-12.81c1.77,0,2.84-0.03,3.2-0.08c0.55,0,1.29-0.05,2.23-0.16c0.55,0,1.05-0.08,1.52-0.23l0.08,1.99
				c-0.49,0.13-1.11,0.23-1.84,0.31c-0.13,0.03-0.31,0.05-0.55,0.06c-0.23,0.01-0.47,0.03-0.72,0.04c-0.25,0.01-0.44,0.03-0.57,0.06
				c-0.52,0-0.98,0.08-1.37,0.23c-0.16,0.44-0.29,1.03-0.39,1.76c-0.37,1.85-0.57,2.99-0.62,3.44c-0.1,1.28-0.2,2.37-0.29,3.28
				c-0.09,0.91-0.16,1.67-0.21,2.26c-0.26,2.4-0.39,4.61-0.39,6.64l-0.39,29.91l-32.33-41.19c-1.25-1.59-2.4-3.21-3.44-4.88
				c-0.47-0.7-0.85-1.27-1.15-1.72c-0.3-0.44-0.5-0.86-0.61-1.25c-0.21-0.57-0.37-1.24-0.47-1.99c0.29-0.03,0.55-0.04,0.8-0.06
				c0.25-0.01,0.57-0.02,0.96-0.02c1.3-0.1,2.29-0.16,2.97-0.16c0.26-0.05,0.55-0.09,0.86-0.12c0.31-0.03,0.59-0.04,0.82-0.06
				c0.23-0.01,0.49-0.03,0.78-0.06h1.13l-0.08,1.6c-0.39,0.16-0.74,0.23-1.05,0.23c-0.26,0.05-0.49,0.11-0.68,0.16
				c-0.2,0.05-0.45,0.11-0.76,0.16c-0.55,0.16-0.9,0.3-1.07,0.43c-0.17,0.13-0.25,0.44-0.25,0.94c0,0.26,0.1,0.61,0.29,1.03
				c0.2,0.43,0.42,0.87,0.68,1.31c0.26,0.44,0.47,0.81,0.62,1.09C199.5,18.24,200.08,19.13,200.97,20.32z"/>
		</g>
		<g>
			<path d="M238.1,80.56c3.1-0.08,5.93-0.62,8.49-1.64c2.56-1.02,4.82-2.53,6.77-4.55c1.95-2.02,3.47-4.54,4.55-7.57
				c1.08-3.03,1.62-6.53,1.62-10.48c0-1.17-0.03-2.07-0.08-2.69c-0.13-2.65-0.59-5.54-1.37-8.65s-2.36-6.37-4.72-9.78
				c-2.37-3.41-5.75-6.14-10.15-8.2c3.93,0.68,7.36,2.33,10.29,4.96c2.93,2.63,5.15,5.84,6.68,9.62c1.52,3.79,2.35,7.85,2.48,12.2
				c0,4.89-0.65,9.18-1.95,12.85c-1.3,3.67-3.12,6.7-5.45,9.08c-2.33,2.38-4.99,4.14-7.96,5.29c-2.98,1.15-6.12,1.74-9.43,1.8
				c-5.47,0-10.4-1.36-14.82-4.08s-7.88-6.49-10.4-11.32c-2.53-4.83-3.79-10.17-3.79-16.03c0.16-3.59,0.69-6.72,1.62-9.39
				c0.92-2.67,1.97-4.83,3.14-6.48c1.17-1.65,2.3-2.97,3.4-3.96c-1.15,2.21-2.1,4.28-2.87,6.21c-0.77,1.93-1.34,3.96-1.7,6.11
				c-0.37,2.15-0.55,4.55-0.55,7.2c0.05,5.52,1.18,10.53,3.38,15.03c2.2,4.5,5.28,8.04,9.23,10.62
				C228.47,79.27,233,80.56,238.1,80.56z M240.09,22.42c5.62,0.18,10.55,1.68,14.8,4.49c4.24,2.81,7.52,6.6,9.82,11.36
				s3.46,10.03,3.46,15.81c-0.13,4.19-0.79,7.79-1.99,10.8c-1.2,3.01-2.47,5.28-3.83,6.81c-1.35,1.54-2.64,2.71-3.87,3.51
				c3.64-4.58,5.78-10.27,6.4-17.06c0.1-1.56,0.16-2.73,0.16-3.51c0-4.09-0.63-7.92-1.89-11.5c-1.26-3.58-3.03-6.72-5.29-9.41
				c-2.26-2.69-4.96-4.84-8.08-6.44s-6.38-2.45-9.76-2.56c-4.87,0-8.85,0.9-11.95,2.69c-3.1,1.8-5.42,4.05-6.97,6.75
				c-1.55,2.71-2.58,5.4-3.08,8.08c-0.51,2.68-0.76,5.26-0.76,7.73c0.31,12.68,5.48,21.98,15.5,27.92c-3.02-0.73-5.69-2-8.02-3.81
				c-2.33-1.81-4.27-4-5.82-6.56c-1.55-2.56-2.73-5.36-3.55-8.39s-1.23-6.16-1.23-9.39c0.1-4.19,0.92-8.33,2.44-12.42
				s4.22-7.59,8.08-10.52S233.66,22.42,240.09,22.42z"/>
		</g>
		<g>
			<path d="M239.98,44.65l22.06,32.87v12.14v7.69v3.98c-1.22,0.13-2.45,0.34-3.69,0.62c-1.24,0.29-2.49,0.69-3.77,1.21v-1.84
				c0.42-0.23,1.38-0.65,2.89-1.25c0.13-0.08,0.26-0.14,0.39-0.2c0.13-0.05,0.25-0.1,0.35-0.16c0.1-0.05,0.21-0.1,0.31-0.16
				c0.05,0,0.18-0.05,0.39-0.16c0.05-0.52,0.08-0.94,0.1-1.25c0.01-0.31,0.03-0.66,0.06-1.05v-8.08v-10.7l-18.23-27.6
				c-0.37-0.55-0.68-0.95-0.94-1.21c-0.16-0.23-0.61-0.82-1.37-1.76c-0.76-1.02-1.21-1.65-1.37-1.91c-0.47,0-0.82-0.03-1.05-0.08
				c-0.96,0-1.65-0.03-2.07-0.08c-0.23-0.03-0.45-0.04-0.66-0.06c-0.21-0.01-0.47-0.02-0.78-0.02v-1.21
				c1.33,0.05,2.77,0.08,4.33,0.08c0.96,0,1.65,0.05,2.07,0.16H239.98z M263.87,72.33l5.74-8.63c0.44-0.65,0.85-1.41,1.21-2.26
				c0.18-0.37,0.46-0.84,0.84-1.43s0.71-1.14,1-1.66c2.4-4.5,3.59-8.64,3.59-12.42c-0.23-0.03-0.46-0.04-0.68-0.06
				c-0.22-0.01-0.53-0.02-0.92-0.02c-0.52-0.05-0.96-0.08-1.31-0.1s-0.74-0.03-1.15-0.06c-0.65,0-1.11-0.03-1.37-0.08l-0.08-1.21
				c0.52,0.03,0.98,0.04,1.39,0.06c0.4,0.01,0.9,0.03,1.48,0.06c0.59,0.03,1.18,0.06,1.78,0.12h2.23c0.26,0,0.47,0.01,0.64,0.02
				c0.17,0.01,0.36,0.03,0.57,0.06v0.51c0,0.42-0.05,0.7-0.16,0.86c0,0.6-0.03,1.05-0.08,1.37c-0.16,1.33-0.72,3.14-1.68,5.43
				l5.9-8.24h1.52h1.91c0.16-0.03,0.86-0.1,2.11-0.23h0.86l-0.31,1.21c-0.6,0.08-2.04,0.16-4.33,0.23
				c-0.34,0.34-0.85,0.92-1.52,1.76c-0.78,0.94-2,2.56-3.67,4.88c-0.42,0.52-0.76,0.98-1.02,1.37c-0.16,0.21-0.29,0.38-0.39,0.51
				s-0.22,0.27-0.35,0.43l-13.82,21.12l-13.43-19.17c-0.23-0.44-0.48-0.85-0.74-1.21c-0.65-1.04-1.15-1.82-1.48-2.34
				c-0.34-0.52-0.61-0.94-0.82-1.25c-1.72-2.5-3.07-4.91-4.06-7.22h2.54c0.81-0.05,1.95-0.08,3.44-0.08c0.31,0,0.81-0.03,1.48-0.08
				c0.68-0.05,1.17-0.08,1.48-0.08c0.7,0,1.18-0.03,1.44-0.08l0.23,1.21c-0.31,0.05-0.79,0.08-1.44,0.08
				c-0.49,0-1.21,0.05-2.15,0.16c-0.47,0.03-0.88,0.04-1.25,0.06c-0.37,0.01-0.83,0.04-1.41,0.1c0.21,0.44,0.42,0.9,0.62,1.37
				s0.4,0.92,0.59,1.37c0.37,0.68,0.66,1.24,0.9,1.7c0.23,0.45,0.49,0.96,0.78,1.5c0.26,0.42,0.53,0.84,0.8,1.27
				c0.27,0.43,0.51,0.85,0.72,1.27c0.18,0.29,0.33,0.53,0.43,0.72c0.1,0.2,0.22,0.38,0.35,0.57L263.87,72.33z M264.65,79.05
				l2.81-4.41v13.94c0,1.38-0.01,2.5-0.02,3.36c-0.01,0.86-0.03,1.81-0.06,2.85c0.05,0.96,0.08,2.36,0.08,4.18
				c0.21,0.03,0.65,0.09,1.33,0.2s1.44,0.25,2.3,0.45s1.43,0.33,1.72,0.41l-0.08,1.99c-2.65-0.49-4.65-0.74-5.97-0.74
				c-0.86,0-1.5,0.03-1.91,0.08c-0.13-2.47-0.2-4.69-0.2-6.64v-5.9V79.05z"/>
		</g>
	</g>
</g>
</svg>
